<svg width="16" height="16" viewBox="0 0 16 16" fill="none" xmlns="http://www.w3.org/2000/svg">
<g clip-path="url(#clip0_625_677)">
<path fill-rule="evenodd" clip-rule="evenodd" d="M4.67364 2.66672C5.55507 2.66821 6.32625 2.9541 6.94006 3.26553C7.24881 3.42218 7.52541 3.58935 7.75932 3.73546C7.82897 3.77897 7.89264 3.81917 7.95149 3.85632C7.96806 3.86678 7.98425 3.877 8.00008 3.88698C8.01591 3.877 8.0321 3.86678 8.04868 3.85632C8.10752 3.81917 8.1712 3.77897 8.24085 3.73546C8.47476 3.58935 8.75136 3.42218 9.06011 3.26553C9.67413 2.95399 10.4456 2.66801 11.3274 2.66672C12.3647 2.64904 13.3672 3.04119 14.1172 3.75819C14.8688 4.47669 15.3058 5.46313 15.3332 6.50252C15.3333 6.50836 15.3334 6.5142 15.3334 6.52005C15.3334 8.04558 14.8019 10.176 14.0258 11.9195C13.6361 12.795 13.1673 13.6134 12.6405 14.2246C12.1328 14.8138 11.4636 15.3334 10.6667 15.3334C10.1332 15.3334 9.62001 15.1244 9.23286 14.9667C9.20325 14.9547 9.17438 14.9429 9.14629 14.9316C8.69939 14.7511 8.35372 14.6267 8.00008 14.6267C7.64645 14.6267 7.30077 14.7511 6.85387 14.9316C6.82579 14.9429 6.79692 14.9547 6.76731 14.9667C6.38016 15.1244 5.86699 15.3334 5.33342 15.3334C4.53659 15.3334 3.86736 14.8138 3.35964 14.2246C2.83289 13.6134 2.36405 12.795 1.97436 11.9195C1.19831 10.176 0.666748 8.04558 0.666748 6.52005L0.666945 6.50387C0.692209 5.46342 1.1288 4.4754 1.88108 3.75622C2.6317 3.03863 3.63557 2.64705 4.67364 2.66672ZM4.65295 3.99991C3.96514 3.98566 3.29973 4.2446 2.80245 4.71999C2.30708 5.19357 2.01879 5.8435 2.00009 6.52837C2.0021 7.81621 2.47008 9.7543 3.19247 11.3773C3.55278 12.1868 3.95894 12.8776 4.36969 13.3542C4.79947 13.853 5.13024 14 5.33342 14C5.59237 14 5.87497 13.8889 6.35463 13.6952C6.78273 13.5223 7.35372 13.2934 8.00008 13.2934C8.64645 13.2934 9.21744 13.5223 9.64554 13.6952C10.1252 13.8889 10.4078 14 10.6667 14C10.8699 14 11.2007 13.853 11.6305 13.3542C12.0412 12.8776 12.4474 12.1868 12.8077 11.3773C13.53 9.7546 13.9979 7.81692 14.0001 6.52907C13.9798 5.84455 13.691 5.19535 13.1958 4.72197C12.6986 4.24662 12.0336 3.98709 11.3459 3.99993L11.3334 4.00005C10.7377 4.00005 10.178 4.19348 9.66339 4.45457C9.40714 4.58459 9.16957 4.72742 8.94724 4.8663C8.89545 4.89865 8.84262 4.93201 8.78962 4.96548C8.6282 5.06741 8.46527 5.1703 8.32582 5.24839C8.12345 5.36172 7.87672 5.36172 7.67435 5.24839C7.5349 5.1703 7.37197 5.06741 7.21055 4.96548C7.15755 4.93201 7.10472 4.89865 7.05293 4.8663C6.83059 4.72742 6.59303 4.58459 6.33677 4.45457C5.82218 4.19348 5.26245 4.00005 4.66675 4.00005L4.65295 3.99991Z" fill="#E07B67"/>
<path fill-rule="evenodd" clip-rule="evenodd" d="M6.07028 1.03517C6.23494 0.705855 6.63539 0.572372 6.96471 0.737032C7.95912 1.23423 8.66657 2.55283 8.66657 4.66665C8.66657 5.03484 8.36809 5.33332 7.9999 5.33332C7.63171 5.33332 7.33324 5.03484 7.33324 4.66665C7.33324 2.78046 6.70735 2.09907 6.36843 1.9296C6.03911 1.76494 5.90562 1.36449 6.07028 1.03517Z" fill="#E07B67"/>
</g>
<defs>
<clipPath id="clip0_625_677">
<rect width="16" height="16" fill="white"/>
</clipPath>
</defs>
</svg>
