<svg width="16" height="16" viewBox="0 0 16 16" fill="none" xmlns="http://www.w3.org/2000/svg">
<g clip-path="url(#clip0_625_671)">
<path d="M4.5408 9.06071L5.28973 9.80599C5.55072 10.0657 5.97283 10.0647 6.23254 9.80369C6.49225 9.5427 6.49122 9.12059 6.23023 8.86088L5.21119 7.84681L4.5408 9.06071Z" fill="#8CAD51"/>
<path fill-rule="evenodd" clip-rule="evenodd" d="M7.88286 4.43628C7.40129 4.4359 6.92435 4.53038 6.47928 4.71432C6.03422 4.89827 5.62937 5.16844 5.28858 5.5087C4.74101 6.05627 4.19971 6.89442 3.70536 7.7916C3.20404 8.70142 2.72391 9.72267 2.30825 10.674C1.89194 11.6268 1.53668 12.5179 1.28561 13.1704C1.15998 13.4968 1.06021 13.7641 0.991687 13.9503C0.957422 14.0434 0.930956 14.1162 0.912963 14.166L0.892407 14.2232L0.88705 14.2382L0.88512 14.2436L1.51332 14.4668L1.73663 15.0949L1.74173 15.0931L1.75674 15.0878L1.81393 15.0672C1.86379 15.0492 1.93668 15.0228 2.02985 14.9885C2.21615 14.92 2.48369 14.8203 2.8104 14.6947C3.46335 14.4437 4.35503 14.0887 5.30824 13.6728C6.25997 13.2576 7.28142 12.7781 8.19091 12.2778C9.08742 11.7845 9.92487 11.2446 10.471 10.6985C10.5244 10.6453 10.576 10.5905 10.6258 10.5342C10.651 10.5153 10.6752 10.4944 10.6981 10.4715C10.7558 10.4138 10.8007 10.3481 10.8328 10.278C11.0075 10.0408 11.1534 9.7828 11.2669 9.50946C11.4515 9.06468 11.5468 8.58789 11.5471 8.10632C11.5475 7.62474 11.453 7.1478 11.2691 6.70274C11.0852 6.25767 10.8154 5.8532 10.4751 5.5124C10.1348 5.17161 9.73078 4.90117 9.28601 4.71653C8.84123 4.53189 8.36444 4.43666 7.88286 4.43628ZM4.77506 12.4507C3.99349 12.7917 3.2526 13.0915 2.65594 13.3246C2.88908 12.7286 3.18892 11.9886 3.53005 11.2079C3.84112 10.4959 4.1844 9.7549 4.5408 9.06071L5.21119 7.84681C5.57193 7.24711 5.91872 6.76428 6.23113 6.45176C6.44799 6.23527 6.70537 6.06361 6.98856 5.94656C7.27181 5.8295 7.57533 5.76937 7.88182 5.76961C8.1883 5.76985 8.49173 5.83046 8.77479 5.94797C9.05785 6.06547 9.315 6.23759 9.53154 6.45447C9.74809 6.67136 9.91979 6.92877 10.0369 7.21201C10.1539 7.49526 10.214 7.79879 10.2138 8.10527C10.2136 8.3777 10.1657 8.64771 10.0725 8.90316L9.05805 7.8887C8.7977 7.62835 8.3756 7.62835 8.11525 7.8887C7.8549 8.14905 7.8549 8.57116 8.11525 8.83151L9.27199 9.98825C8.85526 10.3365 8.25921 10.7184 7.54822 11.1095C6.68771 11.5829 5.70666 12.0443 4.77506 12.4507Z" fill="#8CAD51"/>
<path d="M1.73663 15.0949C1.73663 15.0949 1.73613 15.0951 1.51332 14.4668C0.885056 14.2438 0.88512 14.2436 0.88512 14.2436C0.799105 14.4859 0.860048 14.7563 1.04184 14.9381C1.22362 15.1199 1.49429 15.1809 1.73663 15.0949Z" fill="#8CAD51"/>
<path fill-rule="evenodd" clip-rule="evenodd" d="M10.358 4.79904C10.8208 4.45371 11.5554 4 12.3334 4C13.2682 4 13.9977 4.43054 14.4678 4.81988C14.7058 5.01702 14.8895 5.21325 15.0146 5.36113C15.0775 5.43548 15.1265 5.49872 15.1611 5.54528C15.1784 5.5686 15.1922 5.58783 15.2023 5.60229L15.2148 5.62036L15.219 5.62658L15.2206 5.62896L15.2213 5.62996C15.2214 5.63018 15.2219 5.63084 14.6668 6C15.2219 6.36916 15.2217 6.36937 15.2216 6.36958L15.2206 6.37104L15.219 6.37342L15.2148 6.37964L15.2023 6.39771C15.1922 6.41217 15.1784 6.4314 15.1611 6.45472C15.1265 6.50128 15.0775 6.56452 15.0146 6.63887C14.8895 6.78675 14.7058 6.98299 14.4678 7.18012C13.9977 7.56946 13.2682 8 12.3334 8C11.3986 8 10.6692 7.56946 10.199 7.18012C9.96099 6.98299 9.77731 6.78675 9.65223 6.63887C9.58934 6.56452 9.54033 6.50128 9.50575 6.45472C9.48844 6.4314 9.47468 6.41217 9.46454 6.39771L9.45203 6.37964L9.44781 6.37342L9.44621 6.37104L9.44554 6.37004C9.4454 6.36982 9.44496 6.36916 10.0001 6C9.5119 5.54599 9.51201 5.54588 9.51211 5.54577L9.51292 5.54491L9.51439 5.54333L9.5187 5.53874L9.53271 5.52401C9.54439 5.5118 9.56074 5.49492 9.5814 5.47402C9.62267 5.43227 9.68144 5.37423 9.75496 5.30531C9.90122 5.16819 10.1097 4.98436 10.358 4.79904ZM10.0001 6L9.51211 5.54577C9.30206 5.77163 9.27416 6.11232 9.44496 6.36916L10.0001 6ZM10.9282 6.04707C10.9661 6.08208 11.0066 6.11768 11.0495 6.15321C11.3843 6.43054 11.8215 6.66667 12.3334 6.66667C12.8453 6.66667 13.2825 6.43054 13.6174 6.15321C13.6797 6.10162 13.7368 6.0499 13.7884 6C13.7368 5.9501 13.6797 5.89838 13.6174 5.84679C13.2825 5.56946 12.8453 5.33333 12.3334 5.33333C12.0181 5.33333 11.5861 5.54629 11.1555 5.86762C11.0745 5.92805 10.9983 5.98873 10.9282 6.04707ZM14.6668 6L15.2216 6.36958C15.3703 6.14594 15.3706 5.85448 15.2219 5.63084L14.6668 6Z" fill="#8CAD51"/>
<path fill-rule="evenodd" clip-rule="evenodd" d="M10.3692 0.778288L10 1.33341L9.63084 0.778288C9.85448 0.629568 10.1455 0.629568 10.3692 0.778288ZM10 6.00008C9.63084 6.55521 9.63063 6.55507 9.63042 6.55493L9.62896 6.55395L9.62658 6.55235L9.62036 6.54814L9.60229 6.53563C9.58783 6.52549 9.5686 6.51172 9.54528 6.49441C9.49872 6.45984 9.43548 6.41082 9.36113 6.34794C9.21325 6.22285 9.01702 6.03917 8.81988 5.80113C8.43054 5.33101 8 4.60155 8 3.66675C8 2.73195 8.43054 2.00249 8.81988 1.53236C9.01702 1.29432 9.21325 1.11064 9.36113 0.985556C9.43548 0.922674 9.49872 0.873659 9.54528 0.839085C9.5686 0.821774 9.58783 0.808011 9.60229 0.79787L9.62036 0.785359L9.62658 0.781141L9.62896 0.779544L9.62996 0.778873C9.63018 0.77873 9.63084 0.778288 10 1.33341C10.3692 0.778288 10.3689 0.778145 10.3692 0.778288L10.37 0.778873L10.371 0.779544L10.3734 0.781141L10.3796 0.785359L10.3977 0.79787C10.4122 0.808011 10.4314 0.821774 10.4547 0.839085C10.5013 0.873659 10.5645 0.922674 10.6389 0.985556C10.7868 1.11064 10.983 1.29432 11.1801 1.53236C11.5695 2.00249 12 2.73195 12 3.66675C12 4.45081 11.5472 5.18492 11.2002 5.6481C11.0145 5.896 10.8303 6.10353 10.6929 6.24898C10.6238 6.32209 10.5656 6.3805 10.5237 6.42152C10.5028 6.44206 10.4858 6.45831 10.4735 6.46993L10.4587 6.48389L10.4541 6.4882L10.4525 6.48968L10.4519 6.49025C10.4517 6.49036 10.4514 6.4907 10 6.00008ZM10 6.00008L9.63042 6.55493C9.88614 6.72498 10.2254 6.69863 10.4514 6.4907L10 6.00008ZM9.95461 5.07376C10.0126 5.00444 10.073 4.92897 10.1331 4.84873C10.4528 4.42191 10.6667 3.98935 10.6667 3.66675C10.6667 3.15488 10.4305 2.71767 10.1532 2.3828C10.1016 2.3205 10.0499 2.26338 10 2.21175C9.9501 2.26338 9.89838 2.3205 9.84679 2.3828C9.56946 2.71767 9.33333 3.15488 9.33333 3.66675C9.33333 4.17862 9.56946 4.61582 9.84679 4.9507C9.88289 4.99429 9.91905 5.03535 9.95461 5.07376Z" fill="#8CAD51"/>
</g>
<defs>
<clipPath id="clip0_625_671">
<rect width="16" height="16" fill="white"/>
</clipPath>
</defs>
</svg>
