<svg width="16" height="16" viewBox="0 0 16 16" fill="none" xmlns="http://www.w3.org/2000/svg">
<path fill-rule="evenodd" clip-rule="evenodd" d="M4.66675 1.33341C4.66675 0.965225 4.96522 0.666748 5.33341 0.666748H10.6667C11.0349 0.666748 11.3334 0.965225 11.3334 1.33341C11.3334 1.7016 11.0349 2.00008 10.6667 2.00008H5.33341C4.96522 2.00008 4.66675 1.7016 4.66675 1.33341Z" fill="#7B94CB"/>
<path fill-rule="evenodd" clip-rule="evenodd" d="M6 0.666748C6.36819 0.666748 6.66667 0.965225 6.66667 1.33341V3.19275C6.66665 3.85088 6.47181 4.49431 6.1067 5.04188C6.10669 5.0419 6.10671 5.04186 6.1067 5.04188L5.66937 5.69788C5.45019 6.02658 5.33324 6.41287 5.33333 6.80793V13.3334C5.33333 13.5102 5.40357 13.6798 5.5286 13.8048C5.65362 13.9298 5.82319 14.0001 6 14.0001H10C10.1768 14.0001 10.3464 13.9298 10.4714 13.8048C10.5964 13.6798 10.6667 13.5102 10.6667 13.3334V6.80743C10.6667 6.80743 10.6667 6.80744 10.6667 6.80743C10.6667 6.41254 10.5497 6.02648 10.3307 5.69793L9.89333 5.04193C9.89332 5.04191 9.89334 5.04195 9.89333 5.04193C9.5281 4.49416 9.33322 3.85045 9.33333 3.19208C9.33333 3.19203 9.33333 3.19213 9.33333 3.19208V1.33341C9.33333 0.965225 9.63181 0.666748 10 0.666748C10.3682 0.666748 10.6667 0.965225 10.6667 1.33341V3.19208C10.6666 3.58715 10.7835 3.97354 11.0027 4.30223L11.44 4.95823C11.8051 5.50582 12 6.14924 12 6.8074V13.3334C12 13.8638 11.7893 14.3726 11.4142 14.7476C11.0391 15.1227 10.5304 15.3334 10 15.3334H6C5.46957 15.3334 4.96086 15.1227 4.58579 14.7476C4.21071 14.3726 4 13.8638 4 13.3334V6.80823C4 6.80818 4 6.80828 4 6.80823C3.99988 6.14986 4.19473 5.50605 4.55997 4.95828C4.55996 4.9583 4.55998 4.95826 4.55997 4.95828L4.9973 4.30228C5.21637 3.97373 5.33332 3.58764 5.33333 3.19275C5.33333 3.19274 5.33333 3.19275 5.33333 3.19275V1.33341C5.33333 0.965225 5.63181 0.666748 6 0.666748Z" fill="#7B94CB"/>
<path fill-rule="evenodd" clip-rule="evenodd" d="M6.33326 10.3319C5.84942 10.3319 5.37041 10.4281 4.92412 10.615C4.5845 10.7572 4.1939 10.5972 4.05167 10.2576C3.90945 9.91801 4.06946 9.5274 4.40908 9.38518C5.01848 9.12997 5.67257 8.99854 6.33326 8.99854C6.99395 8.99854 7.64804 9.12997 8.25745 9.38518L8.25753 9.38521C8.70378 9.57216 9.18277 9.66844 9.6666 9.66844C10.1504 9.66844 10.6294 9.57216 11.0757 9.38521C11.4153 9.24294 11.8059 9.40291 11.9482 9.7425C12.0904 10.0821 11.9305 10.4727 11.5909 10.615C10.9815 10.8703 10.3273 11.0018 9.6666 11.0018C9.0059 11.0018 8.3518 10.8703 7.74241 10.615M6.33326 10.3319C6.81708 10.3319 7.29606 10.4281 7.74233 10.615L6.33326 10.3319Z" fill="#7B94CB"/>
</svg>
