<svg width="18" height="18" viewBox="0 0 18 18" fill="none" xmlns="http://www.w3.org/2000/svg">
<g clip-path="url(#clip0_2857_92)">
<path d="M3.45 9.83244L7.7925 7.42494C9.21 6.63744 11.385 8.75994 10.575 10.2074L8.16 14.5649C6.6 17.3699 0.592497 11.4224 3.45 9.83244Z" stroke="#9A4B1A" stroke-width="2" stroke-linecap="round" stroke-linejoin="round"/>
<path d="M7.875 7.125L7.125 5.4075C6.9 4.86 6.6 4.5 6 4.5H3.375C2.0925 4.5 1.5 4.875 1.5 6.375C1.56288 7.72034 2.0934 9.00153 3 9.9975" stroke="#9A4B1A" stroke-width="2" stroke-linecap="round" stroke-linejoin="round"/>
<path d="M6 4.5C6 3.3375 6.18 1.5 4.5 1.5C3 1.5 2.625 3.1275 2.625 4.5" stroke="#9A4B1A" stroke-width="2" stroke-linecap="round" stroke-linejoin="round"/>
<path d="M10.875 10.125L12.5925 10.875C13.14 11.1 13.5 11.4 13.5 12V14.625C13.5 15.9075 13.125 16.5 11.625 16.5C10.2797 16.4371 8.99847 15.9066 8.0025 15" stroke="#9A4B1A" stroke-width="2" stroke-linecap="round" stroke-linejoin="round"/>
<path d="M13.5 12C14.6625 12 16.5 11.82 16.5 13.5C16.5 15 14.8725 15.375 13.5 15.375" stroke="#9A4B1A" stroke-width="2" stroke-linecap="round" stroke-linejoin="round"/>
</g>
<defs>
<clipPath id="clip0_2857_92">
<rect width="18" height="18" fill="white"/>
</clipPath>
</defs>
</svg>
