<svg width="16" height="16" viewBox="0 0 16 16" fill="none" xmlns="http://www.w3.org/2000/svg">
<path fill-rule="evenodd" clip-rule="evenodd" d="M8.33333 4.66659C7.78105 4.66659 7.33333 5.1143 7.33333 5.66659C7.33333 6.21887 7.78105 6.66659 8.33333 6.66659C8.88562 6.66659 9.33333 6.21887 9.33333 5.66659C9.33333 5.1143 8.88562 4.66659 8.33333 4.66659ZM6 5.66659C6 4.37792 7.04467 3.33325 8.33333 3.33325C9.622 3.33325 10.6667 4.37792 10.6667 5.66659C10.6667 6.95525 9.622 7.99992 8.33333 7.99992C7.04467 7.99992 6 6.95525 6 5.66659Z" fill="#DB5BBF"/>
<path fill-rule="evenodd" clip-rule="evenodd" d="M8.3333 0.666749C7.26206 0.666193 6.21896 1.0097 5.35766 1.64667ZM8.3329 2.00008C7.54723 1.99961 6.78217 2.25152 6.15048 2.71869C5.51878 3.18586 5.05385 3.84359 4.82419 4.59495C4.8215 4.60373 4.81864 4.61246 4.81559 4.62112C4.64646 5.10238 4.52955 5.49648 4.42489 5.84926C4.41994 5.86595 4.41502 5.88255 4.41012 5.89906C4.30357 6.25802 4.20199 6.5974 4.06684 6.9211C3.77957 7.60913 3.36182 8.1776 2.51488 8.94689C2.50654 8.95447 2.49801 8.96183 2.4893 8.96897C2.27675 9.14322 2.12325 9.37891 2.0498 9.64376C1.97635 9.90861 1.98654 10.1897 2.07898 10.4485C2.17142 10.7074 2.34159 10.9313 2.56621 11.0897C2.79082 11.2481 3.0589 11.3332 3.33375 11.3334C5.825 11.3333 8.61069 10.2011 10.5065 8.62127C10.5153 8.61398 10.5242 8.60691 10.5333 8.60008C11.149 8.13834 11.6037 7.49459 11.8332 6.76003C12.0626 6.02547 12.0552 5.23732 11.8118 4.50725C11.5685 3.77717 11.1015 3.14217 10.4772 2.69219C9.85293 2.24222 9.10247 2.00008 8.3329 2.00008ZM8.3333 0.666749C9.38258 0.666832 10.4056 0.997013 11.2569 1.61054C12.1082 2.22414 12.7449 3.09005 13.0767 4.08561C13.4086 5.08117 13.4188 6.15591 13.1059 7.15759C12.7947 8.15372 12.1797 9.02738 11.3472 9.65627C9.24348 11.4041 6.16948 12.6667 3.3333 12.6667C2.7836 12.6664 2.24701 12.4961 1.79778 12.1793C1.34855 11.8625 1.00821 11.4147 0.823324 10.897C0.63844 10.3793 0.618055 9.81714 0.764957 9.28744C0.910224 8.76363 1.21206 8.29687 1.62982 7.94954C2.37425 7.27169 2.648 6.85873 2.83644 6.40739C2.93962 6.16026 3.02221 5.88923 3.13191 5.51965C3.13714 5.502 3.14243 5.48417 3.14777 5.46616C3.25145 5.11665 3.37531 4.69906 3.55324 4.19168C3.86785 3.17273 4.50005 2.28092 5.35766 1.64667" fill="#DB5BBF"/>
<path d="M3.41094 13.1152C3.31849 12.8564 3.3083 12.5753 3.38175 12.3104L1.33325 11.6668L2.15528 13.5637C2.34016 14.0813 2.68051 14.5292 3.12974 14.846C3.57896 15.1628 4.11556 15.3331 4.66526 15.3334C7.50144 15.3334 10.5754 14.0708 12.6792 12.323C13.5116 11.6941 14.1267 10.8204 14.4378 9.82427C14.7507 8.82259 14.7405 7.74785 14.4087 6.75229C14.0768 5.75673 12.3333 2.66675 12.3333 2.66675L12.9999 7.0001C13.2433 7.73017 13.3946 8.69215 13.1651 9.42671C12.9357 10.1613 12.4809 10.805 11.8653 11.2668C11.8561 11.2736 11.8472 11.2807 11.8385 11.2879C9.94264 12.8678 7.15696 14 4.6657 14.0001C4.39085 13.9999 4.12278 13.9148 3.89816 13.7564C3.67355 13.598 3.50338 13.374 3.41094 13.1152Z" fill="#DB5BBF"/>
</svg>
