<svg width="16" height="16" viewBox="0 0 16 16" fill="none" xmlns="http://www.w3.org/2000/svg">
<path fill-rule="evenodd" clip-rule="evenodd" d="M1.99992 6.66675C2.36811 6.66675 2.66659 6.96522 2.66659 7.33341V9.33342H13.3333V7.33341C13.3333 6.96522 13.6317 6.66675 13.9999 6.66675C14.3681 6.66675 14.6666 6.96522 14.6666 7.33341V9.33342C14.6666 9.68704 14.5261 10.0262 14.2761 10.2762C14.026 10.5263 13.6869 10.6667 13.3333 10.6667H2.66659C2.31296 10.6667 1.97382 10.5263 1.72378 10.2762C1.47373 10.0262 1.33325 9.68704 1.33325 9.33342V7.33341C1.33325 6.96522 1.63173 6.66675 1.99992 6.66675Z" fill="#BB9F3A"/>
<path fill-rule="evenodd" clip-rule="evenodd" d="M1.72378 9.72378C1.97382 9.47373 2.31296 9.33325 2.66659 9.33325H13.3333C13.6869 9.33325 14.026 9.47373 14.2761 9.72378C14.5261 9.97383 14.6666 10.313 14.6666 10.6666V11.9999C14.6666 12.3535 14.5261 12.6927 14.2761 12.9427C14.026 13.1928 13.6869 13.3333 13.3333 13.3333H10.7799C10.4117 13.3333 10.1133 13.0348 10.1133 12.6666C10.1133 12.2984 10.4117 11.9999 10.7799 11.9999H13.3333V10.6666L2.66659 10.6666V11.9999L7.99992 11.9999C8.36811 11.9999 8.66659 12.2984 8.66659 12.6666C8.66659 13.0348 8.36811 13.3333 7.99992 13.3333H2.66659C2.31296 13.3333 1.97383 13.1928 1.72378 12.9427C1.47373 12.6927 1.33325 12.3535 1.33325 11.9999V10.6666C1.33325 10.313 1.47373 9.97382 1.72378 9.72378Z" fill="#BB9F3A"/>
<path fill-rule="evenodd" clip-rule="evenodd" d="M7.99996 3.69149C7.8514 3.69149 7.7071 3.74111 7.58996 3.83247L3.94383 6.66679H12.0561L8.40996 3.83247C8.29282 3.74111 8.14852 3.69149 7.99996 3.69149ZM6.77046 2.78071C7.1218 2.50687 7.5545 2.35815 7.99996 2.35815C8.44542 2.35815 8.87812 2.50687 9.22945 2.78071C9.22928 2.78057 9.22962 2.78084 9.22945 2.78071L14.4091 6.80711C14.634 6.98192 14.723 7.28029 14.6306 7.54973C14.5382 7.81916 14.2848 8.00012 14 8.00012H1.99996C1.71512 8.00012 1.46175 7.81916 1.36935 7.54973C1.27694 7.28029 1.36592 6.98192 1.59081 6.80711L6.77046 2.78071C6.77063 2.78057 6.7703 2.78084 6.77046 2.78071Z" fill="#BB9F3A"/>
<path fill-rule="evenodd" clip-rule="evenodd" d="M4.03755 9.77944C4.13121 9.51218 4.3835 9.33325 4.6667 9.33325H13C13.2587 9.33325 13.494 9.48289 13.6038 9.71715C13.7135 9.9514 13.6778 10.228 13.5122 10.4267L11.0095 13.4299C10.6729 13.8287 10.1938 14.0801 9.67444 14.1306C9.1553 14.181 8.63702 14.0266 8.23009 13.7004C8.22989 13.7002 8.2297 13.7001 8.2295 13.6999L4.25056 10.5208C4.02931 10.344 3.94389 10.0467 4.03755 9.77944ZM6.56909 10.6666L9.06391 12.6599C9.19958 12.7688 9.37242 12.8203 9.54555 12.8035C9.7181 12.7867 9.87732 12.7034 9.98945 12.5713L11.5767 10.6666H6.56909Z" fill="#BB9F3A"/>
</svg>
