<svg width="18" height="18" viewBox="0 0 18 18" fill="none" xmlns="http://www.w3.org/2000/svg">
<path d="M9 3.75008C9.5025 3.75008 10.0125 3.81758 10.5 3.94508C11.835 2.44508 14.2725 1.81508 15.315 2.25008C16.365 2.68508 15 7.50008 15 7.50008C15.4275 8.30258 15.75 9.18008 15.75 10.0801C15.75 13.4251 12.7275 15.7501 9 15.7501C5.2725 15.7501 2.25 13.5001 2.25 10.0801C2.25 9.14258 2.625 8.28008 3 7.50008C3 7.50008 1.5825 2.68508 2.625 2.25008C3.6675 1.81508 6.165 2.42258 7.5 3.92258C7.99202 3.80941 8.49513 3.75155 9 3.75008Z" stroke="#CDEE47" stroke-width="2" stroke-linecap="round" stroke-linejoin="round"/>
<path d="M6 10.5V10.875" stroke="#CDEE47" stroke-width="2" stroke-linecap="round" stroke-linejoin="round"/>
<path d="M12 10.5V10.875" stroke="#CDEE47" stroke-width="2" stroke-linecap="round" stroke-linejoin="round"/>
<path d="M8.4375 12.1875H9.5625L9 12.75L8.4375 12.1875Z" stroke="#CDEE47" stroke-width="2" stroke-linecap="round" stroke-linejoin="round"/>
</svg>
